<svg width="181" height="76" viewBox="0 0 181 76" fill="none" xmlns="http://www.w3.org/2000/svg">
<path d="M71.3941 9.7561C71.3941 9.7561 72.177 8.22042 74.4956 8.03975C76.8141 7.88919 77.868 9.30443 77.868 9.30443C74.074 11.894 76.3926 18.5486 78.5907 23.1256H76.6636C73.1707 19.1208 69.1959 13.3695 71.3941 9.7561Z" fill="white"/>
<path d="M89.9732 25.4442H103.403C103.403 25.4442 103.102 26.197 103.102 27.8531C103.102 29.3286 103.433 30.1115 103.433 30.1115H89.9431H76.4531C76.4531 30.1115 76.7843 29.3286 76.7843 27.8531C76.7843 26.197 76.4832 25.4442 76.4832 25.4442H89.9732Z" fill="white"/>
<path d="M92.1412 2.16803C92.1412 3.37248 91.1777 4.33605 89.9732 4.33605C88.7687 4.33605 87.8052 3.37248 87.8052 2.16803C87.8052 0.963567 88.7687 0 89.9732 0C91.1777 0 92.1412 0.963567 92.1412 2.16803Z" fill="white"/>
<path d="M99.5183 6.2632C99.5183 6.2632 98.5246 4.60707 95.935 4.60707C93.3454 4.60707 92.2915 6.2632 92.2915 6.2632C95.1521 11.2015 93.2551 18.639 91.6592 23.1256H93.4358C97.2599 18.4583 102.56 10.5691 99.5183 6.2632Z" fill="white"/>
<path d="M108.522 9.7561C108.522 9.7561 107.739 8.22042 105.42 8.03975C103.102 7.88919 102.048 9.30443 102.048 9.30443C105.842 11.894 103.523 18.5486 101.325 23.1256H103.252C106.775 19.1208 110.72 13.3695 108.522 9.7561Z" fill="white"/>
<path d="M80.4278 6.2632C80.4278 6.2632 81.4214 4.60707 84.011 4.60707C86.6006 4.60707 87.6545 6.2632 87.6545 6.2632C84.7939 11.2015 86.691 18.639 88.2869 23.1256H86.4802C82.6861 18.4583 77.3564 10.5691 80.4278 6.2632Z" fill="white"/>
<path d="M8.25054 45.1672C5.69106 45.1672 3.70371 47.2449 3.70371 50.9185C3.70371 54.9835 5.66095 57.6936 8.88288 57.6936C11.4725 57.6936 13.4297 55.4954 13.4297 51.8821C13.3996 48.088 11.5929 45.1672 8.25054 45.1672ZM8.28065 60.3133C3.13159 60.3133 0 56.4891 0 51.7014C0 46.6126 3.58326 42.5776 8.88288 42.5776C14.0018 42.5776 17.1033 46.3717 17.1033 51.1895C17.1033 56.188 13.6706 60.3133 8.28065 60.3133Z" fill="white"/>
<path d="M30.5332 59.9519H20.0845C20.0845 59.9519 21.1986 59.8917 21.1986 57.0913V47.3051C21.1986 44.8058 19.9941 44.7456 19.9941 44.7456H25.5949C25.5949 44.7456 24.3603 44.8058 24.3603 47.3051V57.8441H27.522C29.4792 57.8441 30.4729 56.8203 31.316 54.9233L30.5332 59.9519Z" fill="white"/>
<path d="M39.9577 46.7932H38.3919V57.8441H40.6201C43.6915 57.8441 45.1369 55.1642 45.1369 52.3638C45.1067 49.1118 43.4506 46.7932 39.9577 46.7932ZM40.4997 59.9519H33.8149C33.8149 59.9519 35.0796 59.8917 35.0796 57.1214V47.3051C35.0796 44.8058 33.6343 44.7456 33.6343 44.7456H40.7105C45.4982 44.7456 48.5696 47.7869 48.5696 52.1832C48.5696 56.188 46.1606 59.9519 40.4997 59.9519Z" fill="white"/>
<path d="M61.6382 45.2575H59.8917V57.6032H62.391C65.8237 57.6032 67.4497 54.6222 67.4497 51.4906C67.4196 47.8471 65.5527 45.2575 61.6382 45.2575ZM62.2404 59.9519H54.7728C54.7728 59.9519 56.188 59.8917 56.188 56.7902V45.8296C56.188 43.0594 54.562 42.969 54.562 42.969H62.4813C67.8412 42.969 71.2438 46.3716 71.2438 51.2798C71.2739 55.7363 68.594 59.9519 62.2404 59.9519Z" fill="white"/>
<path d="M81.7225 46.7029C79.4341 46.7029 77.6274 48.5397 77.6274 51.8519C77.6274 55.4954 79.3738 57.9345 82.2645 57.9345C84.5831 57.9345 86.3296 55.9772 86.3296 52.7252C86.3296 49.3527 84.6734 46.7029 81.7225 46.7029ZM81.7526 60.2831C77.1456 60.2831 74.3452 56.8504 74.3452 52.5746C74.3452 48.0278 77.5671 44.4144 82.2946 44.4144C86.8716 44.4144 89.6719 47.817 89.6719 52.1229C89.6418 56.5794 86.5705 60.2831 81.7526 60.2831Z" fill="white"/>
<path d="M105.45 59.9519C105.45 59.9519 106.564 59.8917 106.564 57.3623V48.7204L101.445 60.3133L96.206 48.7505V57.272C96.206 59.8917 97.6513 59.982 97.6513 59.982H92.3517C92.3517 59.982 93.7971 59.9218 93.7971 57.2419V47.2449C93.7971 44.836 92.2915 44.8059 92.2915 44.8059H97.8922L101.927 53.9899L105.932 44.8059H110.961C110.961 44.8059 109.696 44.8661 109.696 47.3051V57.4226C109.696 59.9519 110.961 60.0122 110.961 60.0122H105.45V59.9519Z" fill="white"/>
<path d="M113.55 59.9519C113.55 59.9519 114.755 59.8917 114.755 57.5731V47.1846C114.755 44.8661 113.55 44.7456 113.55 44.7456H119.211C119.211 44.7456 118.007 44.8661 118.007 47.1846V57.5731C118.007 59.8616 119.211 59.9519 119.211 59.9519H113.55Z" fill="white"/>
<path d="M135.682 47.275V59.9519H133.303C133.303 59.9519 132.731 58.2055 130.864 55.917L125.776 49.714V57.4828C125.776 59.8917 127.191 59.982 127.191 59.982H122.072C122.072 59.982 123.246 59.9218 123.246 57.4828V47.4557C123.246 45.7092 121.319 44.8661 121.168 44.7757H126.016L133.213 53.749V47.275C133.213 44.836 131.918 44.7757 131.918 44.7757H136.947C136.917 44.7456 135.682 44.836 135.682 47.275Z" fill="white"/>
<path d="M139.476 59.9519C139.476 59.9519 140.681 59.8917 140.681 57.5731V47.1846C140.681 44.8661 139.476 44.7456 139.476 44.7456H145.137C145.137 44.7456 143.933 44.8661 143.933 47.1846V57.5731C143.933 59.8616 145.137 59.9519 145.137 59.9519H139.476Z" fill="white"/>
<path d="M155.285 46.7029C152.966 46.7029 151.19 48.5397 151.19 51.8519C151.19 55.4954 152.936 57.9345 155.827 57.9345C158.145 57.9345 159.892 55.9772 159.892 52.7252C159.892 49.3527 158.236 46.7029 155.285 46.7029ZM155.285 60.2831C150.678 60.2831 147.877 56.8504 147.877 52.5746C147.877 48.0278 151.099 44.4144 155.827 44.4144C160.404 44.4144 163.204 47.817 163.204 52.1229C163.174 56.5794 160.103 60.2831 155.285 60.2831Z" fill="white"/>
<path d="M179.735 47.275V59.9519H177.357C177.357 59.9519 176.784 58.2055 174.918 55.917L169.829 49.714V57.4828C169.829 59.8917 171.244 59.982 171.244 59.982H166.125C166.125 59.982 167.299 59.9218 167.299 57.4828V47.4557C167.299 45.7092 165.372 44.8661 165.222 44.7757H170.07L177.266 53.749V47.275C177.266 44.836 175.971 44.7757 175.971 44.7757H181C180.97 44.7456 179.735 44.836 179.735 47.275Z" fill="white"/>
<path d="M37.82 67.6002V72.1471C37.82 74.7366 36.3747 75.8207 34.0561 75.8207C31.2859 75.8207 30.0814 74.6463 30.0814 72.2976V67.6002C30.0814 66.0043 29.3286 65.9742 29.3286 65.9742H32.942C32.942 65.9742 32.1892 66.0043 32.1892 67.54V72.2073C32.1892 73.8333 32.8517 74.4054 34.1766 74.4054C35.5617 74.4054 36.0736 73.6827 36.0736 72.2073V67.6002C36.0736 66.0344 35.2305 65.9742 35.2305 65.9742H38.6632C38.6632 65.9742 37.82 66.0043 37.82 67.6002Z" fill="white"/>
<path d="M52.5746 67.5701V75.6099H51.069C51.069 75.6099 50.7077 74.4958 49.5334 73.0504L46.3114 69.1058V74.014C46.3114 75.5195 47.2148 75.5798 47.2148 75.5798H43.9627C43.9627 75.5798 44.7155 75.5497 44.7155 73.9839V67.6303C44.7155 66.5162 43.5111 65.9742 43.3906 65.9441H46.4319L50.9787 71.6352V67.54C50.9787 66.0043 50.1657 65.9441 50.1657 65.9441H53.3575C53.3274 65.9742 52.5746 66.0344 52.5746 67.5701Z" fill="white"/>
<path d="M58.5967 75.6099C58.5967 75.6099 59.3495 75.5798 59.3495 74.1043V67.54C59.3495 66.0645 58.5967 66.0043 58.5967 66.0043H62.1799C62.1799 66.0043 61.4272 66.0645 61.4272 67.54V74.1043C61.4272 75.5798 62.1799 75.6099 62.1799 75.6099H58.5967Z" fill="white"/>
<path d="M76.122 67.811L73.0506 75.6099H71.5752L68.4134 67.7207C67.7209 66.0043 67.0283 65.9742 67.0283 65.9742H70.9729C70.9729 65.9742 70.3406 66.0043 70.3406 66.6367C70.3406 66.8474 70.4309 67.0582 70.5815 67.4196L72.5989 72.5084L74.5562 67.3593C74.6766 67.0582 74.7369 66.8474 74.7369 66.6668C74.7369 66.0043 74.1045 65.9742 74.1045 65.9742H77.5071C77.5071 65.9742 76.8447 66.0043 76.122 67.811Z" fill="white"/>
<path d="M89.1299 75.6099H82.4753C82.4753 75.6099 83.2883 75.5797 83.2883 73.8935V67.6002C83.2883 66.0645 82.3247 66.0043 82.3247 66.0043H88.9191V68.7444C88.8288 68.2627 88.4674 67.2991 87.2028 67.2991H85.3359V70.0995H86.9619C88.0459 70.0995 88.1061 69.3467 88.1061 69.3467V72.147C88.1061 72.147 88.0459 71.4244 86.992 71.4244H85.3359V74.3151H87.3533C88.5277 74.285 89.16 73.8333 89.5816 72.7192L89.1299 75.6099Z" fill="white"/>
<path d="M98.5849 67.269H97.5912V70.521H98.615C99.8496 70.521 100.331 69.708 100.331 68.8649C100.301 68.0519 99.7291 67.269 98.5849 67.269ZM100.361 75.6099L98.7656 72.6589C98.344 71.876 98.1934 71.7255 97.8923 71.7255H97.6213V74.014C97.6213 75.5798 98.4042 75.6099 98.4042 75.6099H94.8511C94.8511 75.6099 95.634 75.5798 95.634 74.014V67.6604C95.634 66.0645 94.7607 66.0043 94.7607 66.0043H99.0065C101.265 66.0043 102.439 67.3894 102.439 68.8348C102.439 70.0392 101.626 71.2738 100.03 71.4545C100.271 71.5448 100.512 71.8459 100.783 72.2976L102.078 74.556C102.65 75.5798 103.403 75.6099 103.523 75.64H100.361V75.6099Z" fill="white"/>
<path d="M111.202 75.8207C110.118 75.8207 109.124 75.5497 108.461 75.098V72.0266C108.943 73.743 110.148 74.4054 111.262 74.4054C112.135 74.4054 112.797 73.9839 112.797 73.2913C112.797 72.2675 111.623 71.8459 110.509 71.2437C109.485 70.7017 108.522 70.0393 108.522 68.6541C108.522 66.8776 109.937 65.7935 111.864 65.7935C112.767 65.7935 113.61 66.0645 114.122 66.456V68.9854C113.701 67.6906 112.677 67.1787 111.713 67.1787C110.78 67.1787 110.358 67.6906 110.358 68.2326C110.358 69.0155 111.202 69.4069 112.165 69.8586C113.4 70.4608 114.785 71.1534 114.785 72.93C114.755 74.7969 113.219 75.8207 111.202 75.8207Z" fill="white"/>
<path d="M120.084 75.6099C120.084 75.6099 120.837 75.5798 120.837 74.1043V67.54C120.837 66.0645 120.084 66.0043 120.084 66.0043H123.668C123.668 66.0043 122.915 66.0645 122.915 67.54V74.1043C122.915 75.5798 123.668 75.6099 123.668 75.6099H120.084Z" fill="white"/>
<path d="M135.411 67.2991H134.177V73.9839C134.177 75.5798 134.929 75.6099 134.929 75.6099H131.316C131.316 75.6099 132.069 75.6099 132.069 73.9839V67.2991H130.804C129.72 67.2991 129.238 67.3894 128.787 68.6842L129.028 65.9742H137.188L137.398 68.6842C136.977 67.4497 136.555 67.2991 135.411 67.2991Z" fill="white"/>
<path d="M150.286 67.6604L147.968 71.5448V73.9838C147.968 75.5797 148.721 75.6099 148.721 75.6099H145.107C145.107 75.6099 145.89 75.5797 145.89 73.9838V71.6351L143.602 67.6604C142.668 66.0344 142.066 66.0043 142.066 66.0043H146.011C146.011 66.0043 145.559 66.0344 145.559 66.5463C145.559 66.7872 145.649 67.1184 145.92 67.6002L147.305 69.979L148.54 67.8712C148.901 67.2389 149.052 66.8474 149.052 66.5764C149.052 66.0645 148.63 66.0344 148.63 66.0344H151.822C151.792 65.9742 151.25 66.0344 150.286 67.6604Z" fill="white"/>
</svg>
